<svg width="64" height="64" viewBox="0 0 64 64" fill="none" xmlns="http://www.w3.org/2000/svg">
  <!-- Outer square with thin white border -->
  <rect x="2" y="2" width="60" height="60" rx="6" stroke="white" stroke-width="2" fill="rgba(0,0,0,0.1)"/>
  
  <!-- Female assistant avatar - simplified and clearer -->
  <!-- Head -->
  <circle cx="32" cy="22" r="10" fill="#FF6B9D"/>
  
  <!-- Hair (simplified wavy) -->
  <path d="M 22 18 Q 22 12, 26 12 Q 30 10, 32 12 Q 34 10, 38 12 Q 42 12, 42 18 Q 42 16, 40 16 Q 38 14, 36 16 Q 34 14, 32 16 Q 30 14, 28 16 Q 26 16, 24 18 Z" fill="#8B4513"/>
  
  <!-- Body/Dress -->
  <path d="M 22 32 L 22 50 Q 22 52, 24 54 L 40 54 Q 42 52, 42 50 L 42 32 Q 40 30, 38 30 Q 36 28, 34 30 Q 32 28, 30 30 Q 28 30, 26 32 Z" fill="#FF6B9D"/>
  
  <!-- Eyes -->
  <circle cx="28" cy="22" r="1.5" fill="white"/>
  <circle cx="36" cy="22" r="1.5" fill="white"/>
  <circle cx="28" cy="22" r="0.8" fill="#1a1a1a"/>
  <circle cx="36" cy="22" r="0.8" fill="#1a1a1a"/>
  
  <!-- Smile -->
  <path d="M 28 26 Q 32 28, 36 26" stroke="white" stroke-width="1.5" fill="none" stroke-linecap="round"/>
</svg>
